<svg width="50" height="50" viewBox="0 0 50 50" fill="none" xmlns="http://www.w3.org/2000/svg">
<path d="M46.2158 24.6582L26.1035 4.56057C25.9587 4.41547 25.7867 4.30036 25.5973 4.22181C25.408 4.14327 25.205 4.10284 25 4.10284C24.795 4.10284 24.592 4.14327 24.4027 4.22181C24.2133 4.30036 24.0413 4.41547 23.8965 4.56057L3.78418 24.6582C3.19824 25.2442 2.86621 26.0401 2.86621 26.8701C2.86621 28.5938 4.26758 29.9951 5.99121 29.9951H8.11035V44.336C8.11035 45.2002 8.80859 45.8985 9.67285 45.8985H21.875V34.961H27.3438V45.8985H40.3271C41.1914 45.8985 41.8896 45.2002 41.8896 44.336V29.9951H44.0088C44.8389 29.9951 45.6348 29.668 46.2207 29.0772C47.4365 27.8565 47.4365 25.8789 46.2158 24.6582Z" fill="black"/>
</svg>
