<svg width="50" height="50" viewBox="0 0 50 50" fill="none" xmlns="http://www.w3.org/2000/svg">
<path d="M5 6.25C5 4.5924 5.52678 3.00269 6.46446 1.83058C7.40214 0.65848 8.67391 0 10 0C11.3261 0 12.5978 0.65848 13.5355 1.83058C14.4732 3.00269 15 4.5924 15 6.25C15 7.9076 14.4732 9.49732 13.5355 10.6694C12.5978 11.8415 11.3261 12.5 10 12.5C8.67391 12.5 7.40214 11.8415 6.46446 10.6694C5.52678 9.49732 5 7.9076 5 6.25ZM2.02343 22.793C2.28906 18.7402 5 15.625 8.25 15.625H11.75C13.8594 15.625 15.7344 16.9336 16.8672 18.9551C16.6562 19.1406 16.4609 19.3457 16.2812 19.5703L11.2812 25.8203C9.57031 27.959 9.57031 31.416 11.2812 33.5547L15 38.2031V45.3125C15 47.9004 13.3203 50 11.25 50H8.75C6.67968 50 5 47.9004 5 45.3125V34.0137C2.92968 33.0859 1.50781 30.5176 1.70312 27.6074L2.02343 22.793ZM35 6.25C35 4.5924 35.5268 3.00269 36.4645 1.83058C37.4021 0.65848 38.6739 0 40 0C41.3261 0 42.5978 0.65848 43.5355 1.83058C44.4732 3.00269 45 4.5924 45 6.25C45 7.9076 44.4732 9.49732 43.5355 10.6694C42.5978 11.8415 41.3261 12.5 40 12.5C38.6739 12.5 37.4021 11.8415 36.4645 10.6694C35.5268 9.49732 35 7.9076 35 6.25ZM33.7187 19.5703C33.5391 19.3457 33.3359 19.1406 33.1328 18.9551C34.2656 16.9336 36.1484 15.625 38.25 15.625H41.75C45 15.625 47.7109 18.7402 47.9766 22.793L48.2969 27.6074C48.4922 30.5176 47.0703 33.0859 45 34.0137V45.3125C45 47.9004 43.3203 50 41.25 50H38.75C36.6797 50 35 47.9004 35 45.3125V38.2031L38.7187 33.5547C40.4297 31.416 40.4297 27.959 38.7187 25.8203L33.7187 19.5703ZM21.25 23.4375V26.5625H28.75V23.4375C28.75 22.4902 29.2031 21.6309 29.9062 21.2695C30.6094 20.9082 31.4141 21.1035 31.9531 21.7773L36.9531 28.0273C37.6875 28.9453 37.6875 30.4297 36.9531 31.3379L31.9531 37.5879C31.4141 38.2617 30.6094 38.457 29.9062 38.0957C29.2031 37.7344 28.75 36.875 28.75 35.9277V32.8125H21.25V35.9375C21.25 36.8848 20.7969 37.7441 20.0937 38.1055C19.3906 38.4668 18.5859 38.2715 18.0469 37.5977L13.0469 31.3477C12.3125 30.4297 12.3125 28.9453 13.0469 28.0371L18.0469 21.7871C18.5859 21.1133 19.3906 20.918 20.0937 21.2793C20.7969 21.6406 21.25 22.5 21.25 23.4473V23.4375Z" fill="black"/>
</svg>
