<svg width="35" height="35" viewBox="0 0 35 35" fill="none" xmlns="http://www.w3.org/2000/svg">
<path d="M26.25 18.9554H18.9583V26.2471C18.9583 26.6339 18.8046 27.0048 18.5312 27.2783C18.2577 27.5518 17.8867 27.7054 17.5 27.7054C17.1132 27.7054 16.7423 27.5518 16.4688 27.2783C16.1953 27.0048 16.0416 26.6339 16.0416 26.2471V18.9554H8.74996C8.36319 18.9554 7.99225 18.8018 7.71876 18.5283C7.44527 18.2548 7.29163 17.8839 7.29163 17.4971C7.29163 17.1103 7.44527 16.7394 7.71876 16.4659C7.99225 16.1924 8.36319 16.0388 8.74996 16.0388H16.0416V8.74709C16.0416 8.36032 16.1953 7.98938 16.4688 7.71589C16.7423 7.4424 17.1132 7.28876 17.5 7.28876C17.8867 7.28876 18.2577 7.4424 18.5312 7.71589C18.8046 7.98938 18.9583 8.36032 18.9583 8.74709V16.0388H26.25C26.6367 16.0388 27.0077 16.1924 27.2812 16.4659C27.5546 16.7394 27.7083 17.1103 27.7083 17.4971C27.7083 17.8839 27.5546 18.2548 27.2812 18.5283C27.0077 18.8018 26.6367 18.9554 26.25 18.9554Z" fill="black"/>
</svg>
