<svg width="50" height="50" viewBox="0 0 50 50" fill="none" xmlns="http://www.w3.org/2000/svg">
<path fill-rule="evenodd" clip-rule="evenodd" d="M25 8.33335C22.0849 8.33282 19.2207 9.09687 16.6932 10.5492C14.1656 12.0016 12.0633 14.0915 10.5959 16.6103C9.12847 19.1292 8.34738 21.9888 8.33056 24.9038C8.31373 27.8189 9.06177 30.6873 10.5 33.2229C11.4721 31.9596 12.7217 30.9367 14.1523 30.2333C15.5828 29.53 17.1559 29.165 18.75 29.1667H31.25C32.8441 29.165 34.4172 29.53 35.8477 30.2333C37.2783 30.9367 38.5279 31.9596 39.5 33.2229C40.9382 30.6873 41.6863 27.8189 41.6694 24.9038C41.6526 21.9888 40.8715 19.1292 39.4041 16.6103C37.9367 14.0915 35.8344 12.0016 33.3068 10.5492C30.7793 9.09687 27.9151 8.33282 25 8.33335ZM41.5479 37.6584C44.3334 34.027 45.8401 29.5766 45.8333 25C45.8333 13.4938 36.5062 4.16669 25 4.16669C13.4938 4.16669 4.16667 13.4938 4.16667 25C4.15979 29.5766 5.66647 34.0271 8.45208 37.6584L8.44167 37.6959L9.18125 38.5563C11.1352 40.8407 13.5612 42.6742 16.2921 43.9305C19.0231 45.1868 21.994 45.836 25 45.8334C29.2236 45.8411 33.3487 44.5582 36.8229 42.1563C38.304 41.133 39.647 39.923 40.8187 38.5563L41.5583 37.6959L41.5479 37.6584ZM25 12.5C23.3424 12.5 21.7527 13.1585 20.5806 14.3306C19.4085 15.5027 18.75 17.0924 18.75 18.75C18.75 20.4076 19.4085 21.9973 20.5806 23.1694C21.7527 24.3415 23.3424 25 25 25C26.6576 25 28.2473 24.3415 29.4194 23.1694C30.5915 21.9973 31.25 20.4076 31.25 18.75C31.25 17.0924 30.5915 15.5027 29.4194 14.3306C28.2473 13.1585 26.6576 12.5 25 12.5Z" fill="black"/>
</svg>
